 
<svg xmlns="http://www.w3.org/2000/svg" version="1.1" xmlns:xlink="http://www.w3.org/1999/xlink" xmlns:svgjs="http://svgjs.com/svgjs" width="512" height="512" x="0" y="0" viewBox="0 0 510 510" style="enable-background:new 0 0 512 512" xml:space="preserve" class=""><g><linearGradient id="a"><stop offset="0" stop-color="#81b823"></stop><stop offset="1" stop-color="#017b4e"></stop></linearGradient><linearGradient xlink:href="#a" id="i" x1="2502.953" x2="2542.696" y1="-874.112" y2="-874.112" gradientTransform="scale(-1 1) rotate(15 -3932.194 -10769.824)" gradientUnits="userSpaceOnUse"></linearGradient><linearGradient id="b"><stop offset="0" stop-color="#017b4e" stop-opacity="0"></stop><stop offset="1" stop-color="#026841"></stop></linearGradient><linearGradient xlink:href="#b" id="j" x1="2532.079" x2="2516.778" y1="-875.086" y2="-873.447" gradientTransform="scale(-1 1) rotate(15 -3932.194 -10769.824)" gradientUnits="userSpaceOnUse"></linearGradient><linearGradient id="c"><stop offset="0" stop-color="#bbec6c"></stop><stop offset="1" stop-color="#81b823"></stop></linearGradient><linearGradient xlink:href="#c" id="k" x1="238.938" x2="266.938" y1="447.504" y2="506.004" gradientUnits="userSpaceOnUse"></linearGradient><linearGradient id="d"><stop offset="0" stop-color="#78a91f" stop-opacity="0"></stop><stop offset=".163" stop-color="#73a620" stop-opacity=".163"></stop><stop offset=".354" stop-color="#659e24" stop-opacity=".354"></stop><stop offset=".559" stop-color="#4e912b" stop-opacity=".559"></stop><stop offset=".774" stop-color="#2d8034" stop-opacity=".774"></stop><stop offset=".994" stop-color="#036941" stop-opacity=".994"></stop><stop offset="1" stop-color="#026841"></stop></linearGradient><linearGradient xlink:href="#d" id="l" x1="260.431" x2="244.765" y1="463.595" y2="448.928" gradientUnits="userSpaceOnUse"></linearGradient><linearGradient xlink:href="#d" id="m" x1="245.256" x2="266.589" y1="436.869" y2="407.202" gradientUnits="userSpaceOnUse"></linearGradient><linearGradient xlink:href="#a" id="n" x1="829.977" x2="930.884" y1="356.828" y2="356.828" gradientTransform="rotate(32.39 718.137 -531.204)" gradientUnits="userSpaceOnUse"></linearGradient><linearGradient xlink:href="#b" id="o" x1="880.43" x2="880.43" y1="339.484" y2="468.244" gradientTransform="rotate(32.39 718.137 -531.204)" gradientUnits="userSpaceOnUse"></linearGradient><linearGradient xlink:href="#b" id="p" x1="880.43" x2="880.43" y1="301.56" y2="434.297" gradientTransform="rotate(32.39 718.137 -531.204)" gradientUnits="userSpaceOnUse"></linearGradient><linearGradient xlink:href="#b" id="q" x1="880.43" x2="880.43" y1="267.798" y2="368.082" gradientTransform="rotate(32.39 718.137 -531.204)" gradientUnits="userSpaceOnUse"></linearGradient><linearGradient xlink:href="#b" id="r" x1="903.926" x2="865.076" y1="354.353" y2="358.515" gradientTransform="rotate(32.39 718.137 -531.204)" gradientUnits="userSpaceOnUse"></linearGradient><linearGradient id="s" x1="399.71" x2="338.21" y1="310.438" y2="294.438" gradientUnits="userSpaceOnUse"><stop offset="0" stop-color="#01525a" stop-opacity="0"></stop><stop offset="1" stop-color="#01525a"></stop></linearGradient><linearGradient xlink:href="#a" id="t" x1="2512.533" x2="2552.276" y1="-1056.891" y2="-1056.891" gradientTransform="scale(-1 1) rotate(60 -10.367 -2630.724)" gradientUnits="userSpaceOnUse"></linearGradient><linearGradient xlink:href="#b" id="u" x1="2541.659" x2="2526.357" y1="-1057.865" y2="-1056.226" gradientTransform="scale(-1 1) rotate(60 -10.367 -2630.724)" gradientUnits="userSpaceOnUse"></linearGradient><linearGradient id="e"><stop offset="0" stop-color="#5a5a5a"></stop><stop offset="1" stop-color="#444"></stop></linearGradient><linearGradient xlink:href="#e" id="v" x1="117.132" x2="421.921" y1="255" y2="255" gradientUnits="userSpaceOnUse"></linearGradient><linearGradient id="f"><stop offset="0" stop-color="#433f43" stop-opacity="0"></stop><stop offset="1" stop-color="#1a1a1a"></stop></linearGradient><linearGradient xlink:href="#f" id="w" x1="279.055" x2="428.055" y1="342.444" y2="523.444" gradientUnits="userSpaceOnUse"></linearGradient><linearGradient xlink:href="#f" id="x" x1="322.232" x2="288.232" y1="392.542" y2="344.542" gradientUnits="userSpaceOnUse"></linearGradient><linearGradient xlink:href="#f" id="y" x1="325.417" x2="286.861" y1="397.033" y2="342.6" gradientUnits="userSpaceOnUse"></linearGradient><linearGradient xlink:href="#f" id="z" x1="53.15" x2="338.15" y1="121.707" y2="430.707" gradientUnits="userSpaceOnUse"></linearGradient><linearGradient xlink:href="#f" id="A" x1="175.527" x2="139.527" y1="251.636" y2="251.636" gradientUnits="userSpaceOnUse"></linearGradient><linearGradient xlink:href="#f" id="B" x1="169.276" x2="169.276" y1="83" y2="22.992" gradientUnits="userSpaceOnUse"></linearGradient><linearGradient xlink:href="#f" id="C" x1="269.527" x2="269.527" y1="440" y2="504.498" gradientUnits="userSpaceOnUse"></linearGradient><linearGradient id="g"><stop offset="0" stop-color="#433f43" stop-opacity="0"></stop><stop offset="1"></stop></linearGradient><linearGradient xlink:href="#g" id="D" x1="169.276" x2="169.276" y1="200.667" y2="146.077" gradientUnits="userSpaceOnUse"></linearGradient><linearGradient xlink:href="#g" id="E" x1="216.256" x2="191.589" y1="311.406" y2="292.739" gradientUnits="userSpaceOnUse"></linearGradient><linearGradient xlink:href="#c" id="F" x1="-854.64" x2="-814.897" y1="-560.881" y2="-560.881" gradientTransform="rotate(60 -932.45 777.618)" gradientUnits="userSpaceOnUse"></linearGradient><linearGradient xlink:href="#d" id="G" x1="-825.515" x2="-840.816" y1="-561.855" y2="-560.216" gradientTransform="rotate(60 -932.45 777.618)" gradientUnits="userSpaceOnUse"></linearGradient><linearGradient xlink:href="#c" id="H" x1="-832.733" x2="-792.99" y1="-473.261" y2="-473.261" gradientTransform="rotate(-30 1066.344 -1934.866)" gradientUnits="userSpaceOnUse"></linearGradient><linearGradient xlink:href="#d" id="I" x1="-803.608" x2="-818.909" y1="-474.236" y2="-472.596" gradientTransform="rotate(-30 1066.344 -1934.866)" gradientUnits="userSpaceOnUse"></linearGradient><linearGradient xlink:href="#c" id="J" x1="111.887" x2="221.06" y1="243.049" y2="346.302" gradientUnits="userSpaceOnUse"></linearGradient><linearGradient xlink:href="#d" id="K" x1="235.543" x2="211.543" y1="195.815" y2="157.815" gradientUnits="userSpaceOnUse"></linearGradient><linearGradient xlink:href="#c" id="L" x1="1013.861" x2="1114.767" y1="-784.074" y2="-784.074" gradientTransform="scale(-1 1) rotate(60 -312.353 -1395.586)" gradientUnits="userSpaceOnUse"></linearGradient><linearGradient xlink:href="#d" id="M" x1="1064.314" x2="1064.314" y1="-801.417" y2="-672.657" gradientTransform="scale(-1 1) rotate(60 -312.353 -1395.586)" gradientUnits="userSpaceOnUse"></linearGradient><linearGradient xlink:href="#d" id="N" x1="1064.314" x2="1064.314" y1="-839.341" y2="-706.604" gradientTransform="scale(-1 1) rotate(60 -312.353 -1395.586)" gradientUnits="userSpaceOnUse"></linearGradient><linearGradient xlink:href="#d" id="O" x1="1064.314" x2="1064.314" y1="-873.103" y2="-772.819" gradientTransform="scale(-1 1) rotate(60 -312.353 -1395.586)" gradientUnits="userSpaceOnUse"></linearGradient><linearGradient xlink:href="#d" id="P" x1="1087.809" x2="1048.96" y1="-786.548" y2="-782.386" gradientTransform="scale(-1 1) rotate(60 -312.353 -1395.586)" gradientUnits="userSpaceOnUse"></linearGradient><linearGradient xlink:href="#e" id="Q" x1="248.657" x2="262.898" y1="85.474" y2="85.474" gradientTransform="rotate(45 224.217 113.162)" gradientUnits="userSpaceOnUse"></linearGradient><linearGradient xlink:href="#e" id="R" x1="234.614" x2="248.855" y1="85.474" y2="85.474" gradientTransform="rotate(45 224.217 113.162)" gradientUnits="userSpaceOnUse"></linearGradient><linearGradient xlink:href="#e" id="S" x1="243.684" x2="249.434" y1="94.593" y2="101.593" gradientTransform="rotate(45 224.217 113.162)" gradientUnits="userSpaceOnUse"></linearGradient><linearGradient xlink:href="#e" id="T" x1="227.683" x2="269.829" y1="126.822" y2="126.822" gradientTransform="rotate(45 224.217 113.162)" gradientUnits="userSpaceOnUse"></linearGradient><linearGradient id="h"><stop offset="0" stop-color="#fd8087"></stop><stop offset="1" stop-color="#e74335"></stop></linearGradient><linearGradient xlink:href="#h" id="U" x1="233.602" x2="249.852" y1="119.808" y2="127.558" gradientTransform="rotate(45 224.217 113.162)" gradientUnits="userSpaceOnUse"></linearGradient><linearGradient xlink:href="#e" id="V" x1="243.466" x2="248.466" y1="112.825" y2="115.742" gradientTransform="rotate(45 224.217 113.162)" gradientUnits="userSpaceOnUse"></linearGradient><linearGradient xlink:href="#e" id="W" x1="230.944" x2="244.768" y1="141.61" y2="141.61" gradientTransform="rotate(45 224.217 113.162)" gradientUnits="userSpaceOnUse"></linearGradient><linearGradient xlink:href="#e" id="X" x1="226.391" x2="232.874" y1="122.941" y2="122.941" gradientTransform="rotate(45 224.217 113.162)" gradientUnits="userSpaceOnUse"></linearGradient><linearGradient xlink:href="#h" id="Y" x1="246.207" x2="263.707" y1="122.512" y2="131.512" gradientTransform="rotate(45 224.217 113.162)" gradientUnits="userSpaceOnUse"></linearGradient><linearGradient xlink:href="#e" id="Z" x1="248.137" x2="252.803" y1="114.424" y2="117.257" gradientTransform="rotate(45 224.217 113.162)" gradientUnits="userSpaceOnUse"></linearGradient><linearGradient xlink:href="#e" id="aa" x1="252.376" x2="266.201" y1="141.61" y2="141.61" gradientTransform="rotate(45 224.217 113.162)" gradientUnits="userSpaceOnUse"></linearGradient><linearGradient xlink:href="#e" id="ab" x1="264.271" x2="270.753" y1="122.941" y2="122.941" gradientTransform="rotate(45 224.217 113.162)" gradientUnits="userSpaceOnUse"></linearGradient><path fill="url(#i)" d="M279.641 454.473c3.718 13.877 1.14 27.957-5.983 39.208a5.821 5.821 0 0 1-7.621 2.042c-11.794-6.182-21.067-17.087-24.785-30.964s-1.14-27.957 5.983-39.208a5.821 5.821 0 0 1 7.621-2.042c11.794 6.183 21.067 17.087 24.785 30.964z" data-original="url(#i)"></path><path fill="url(#j)" d="M266.038 495.723c-11.794-6.182-21.067-17.087-24.785-30.964s-1.14-27.957 5.983-39.208a5.809 5.809 0 0 1 3.412-2.509l19.6 73.147a5.807 5.807 0 0 1-4.21-.466z" data-original="url(#j)"></path><path fill="url(#k)" d="M228.565 356.375c1.034-4.298 5.536-6.749 9.727-5.342 29.333 9.847 52.261 33.784 60.813 64.093 3.097 11.031 3.946 22.062 2.645 32.527-1.605 13.018-6.52 25.173-14.482 35.355a69.554 69.554 0 0 1-5.615 6.336c-23.617 23.617-61.377 27.351-93.953 9.298-4.239-2.348-5.049-8.103-1.622-11.53l4.196-4.196 4.695 2.602c26.665 14.786 57.24 12.056 76.078-6.781a55.344 55.344 0 0 0 5.65-6.611c10.571-14.475 13.499-33.312 7.969-52.927-7.191-25.51-26.46-45.648-51.109-53.936-3.716-1.251-5.909-5.075-4.992-8.888z" data-original="url(#k)"></path><path fill="url(#l)" d="M228.565 356.375c1.034-4.298 5.536-6.749 9.727-5.342 29.333 9.847 52.261 33.784 60.813 64.093 3.097 11.031 3.946 22.062 2.645 32.527-1.605 13.018-6.52 25.173-14.482 35.355a69.554 69.554 0 0 1-5.615 6.336c-23.617 23.617-61.377 27.351-93.953 9.298-4.239-2.348-5.049-8.103-1.622-11.53l4.196-4.196 4.695 2.602c26.665 14.786 57.24 12.056 76.078-6.781a55.344 55.344 0 0 0 5.65-6.611c10.571-14.475 13.499-33.312 7.969-52.927-7.191-25.51-26.46-45.648-51.109-53.936-3.716-1.251-5.909-5.075-4.992-8.888z" data-original="url(#l)"></path><path fill="url(#m)" d="M228.565 356.375c1.034-4.298 5.536-6.749 9.727-5.342 29.333 9.847 52.261 33.784 60.813 64.093 3.097 11.031 3.946 22.062 2.645 32.527-1.605 13.018-6.52 25.173-14.482 35.355a69.554 69.554 0 0 1-5.615 6.336c-23.617 23.617-61.377 27.351-93.953 9.298-4.239-2.348-5.049-8.103-1.622-11.53l4.196-4.196 4.695 2.602c26.665 14.786 57.24 12.056 76.078-6.781a55.344 55.344 0 0 0 5.65-6.611c10.571-14.475 13.499-33.312 7.969-52.927-7.191-25.51-26.46-45.648-51.109-53.936-3.716-1.251-5.909-5.075-4.992-8.888z" data-original="url(#m)"></path><path fill="url(#n)" d="M336.949 278.18c-19.532 30.805-23.961 66.878-15.232 99.542 1.987 7.434 9.346 12.1 16.917 10.726 33.266-6.038 64.004-25.43 83.535-56.235 19.532-30.805 23.961-66.878 15.232-99.542-1.987-7.434-9.346-12.1-16.917-10.726-33.266 6.037-64.004 25.429-83.535 56.235z" data-original="url(#n)"></path><path fill="url(#o)" d="M422.172 332.214a125.53 125.53 0 0 1-12.731 16.801l-7.005.257c-33.315 1.228-60.061 14.573-74.356 37.118 14.295-22.545 14.956-52.428 1.857-83.085l-2.756-6.446a125.564 125.564 0 0 1 9.766-18.681c19.532-30.807 50.268-50.197 83.536-56.236 7.574-1.375 14.933 3.291 16.921 10.728 8.728 32.667 4.3 68.737-15.232 99.544z" data-original="url(#o)"></path><path fill="url(#p)" d="M354.083 345.377c14.294-22.545 41.04-35.89 74.356-37.118l5.653-.207c9.006-24.614 9.84-50.949 3.312-75.381-1.987-7.437-9.346-12.103-16.921-10.728-24.882 4.516-48.346 16.504-66.767 35.148l2.224 5.201c13.099 30.657 12.438 60.54-1.857 83.085z" data-original="url(#p)"></path><path fill="url(#q)" d="M384.297 297.724c11.768-18.561 31.98-30.878 57.344-35.34a126.084 126.084 0 0 0-4.237-29.713c-1.987-7.437-9.346-12.103-16.921-10.728a126.092 126.092 0 0 0-28.682 8.841c6.783 24.844 4.264 48.379-7.504 66.94z" data-original="url(#q)"></path><path fill="url(#r)" d="M338.634 388.448c33.266-6.038 64.004-25.43 83.535-56.235 19.532-30.805 23.961-66.878 15.232-99.542a14.74 14.74 0 0 0-6.365-8.666L328.081 386.388a14.743 14.743 0 0 0 10.553 2.06z" data-original="url(#r)"></path><path fill="url(#s)" d="M336.949 278.18c-19.532 30.805-23.961 66.878-15.232 99.542 1.987 7.434 9.346 12.1 16.917 10.726 33.266-6.038 64.004-25.43 83.535-56.235 19.532-30.805 23.961-66.878 15.232-99.542-1.987-7.434-9.346-12.1-16.917-10.726-33.266 6.037-64.004 25.429-83.535 56.235z" data-original="url(#s)"></path><path fill="url(#t)" d="M111.829 341.146c12.441 7.183 20.575 18.962 23.494 31.955a5.821 5.821 0 0 1-3.945 6.832c-12.711 3.968-26.979 2.814-39.42-4.369s-20.575-18.962-23.494-31.955a5.821 5.821 0 0 1 3.945-6.832c12.711-3.968 26.979-2.814 39.42 4.369z" data-original="url(#t)"></path><path fill="url(#u)" d="M131.378 379.933c-12.711 3.968-26.979 2.814-39.42-4.369s-20.575-18.962-23.494-31.955a5.809 5.809 0 0 1 .638-4.186l65.582 37.864a5.798 5.798 0 0 1-3.306 2.646z" data-original="url(#u)"></path><path fill="url(#v)" d="m324.362 312.863 92.177 129.182c3.364 5.383 5.383 10.765 5.383 16.148 0 24.222-34.987 51.807-59.882 51.807-10.092 0-18.839-4.037-24.894-12.784l-81.411-120.435-34.314 31.623v62.573c0 16.148-23.549 32.296-53.153 32.296s-51.134-16.148-51.134-32.296V31.623C117.132 12.783 138.663 0 168.267 0s53.153 12.783 53.153 31.623V295.37l111.688-108.325c5.383-5.383 12.784-8.074 20.185-8.074 22.876 0 50.462 27.585 50.462 49.789 0 6.728-2.692 12.784-8.074 18.166z" data-original="url(#v)"></path><path fill="url(#w)" d="M401.917 458.19c0 4.05-4.2 11.92-13.44 19.65-10.03 8.4-20.51 12.16-26.44 12.16-4.57 0-6.67-1.63-8.4-4.09l-81.33-120.33c-.59-.87-1.23-1.68-1.94-2.43l39.23-36.54 90.26 126.49c1.96 3.26 2.06 4.81 2.06 5.09z" data-original="url(#w)"></path><path fill="url(#x)" d="M401.917 458.19c0 4.05-4.2 11.92-13.44 19.65-10.03 8.4-20.51 12.16-26.44 12.16-4.57 0-6.67-1.63-8.4-4.09l-81.33-120.33c-.59-.87-1.23-1.68-1.94-2.43l39.23-36.54 90.26 126.49c1.96 3.26 2.06 4.81 2.06 5.09z" data-original="url(#x)"></path><path fill="url(#y)" d="M337.145 497.216C343.201 505.963 351.948 510 362.04 510c24.894 0 59.881-27.586 59.881-51.807 0-5.383-2.019-10.765-5.383-16.148l-92.177-129.182-68.628 63.919z" data-original="url(#y)"></path><path fill="url(#z)" d="M207.867 393.7a19.985 19.985 0 0 0-6.45 14.7v62.13c-1.52 3.7-13.42 12.74-33.15 12.74-19.52 0-30.24-8.94-31.13-12.45V31.62c0-4.17 10.4-11.62 31.13-11.62 21.54 0 33.15 8.25 33.15 11.62v263.75a20.007 20.007 0 0 0 20 20c5.1 0 10.12-1.95 13.93-5.64 0 0 111.83-108.47 111.9-108.54 1.41-1.41 3.61-2.22 6.05-2.22 4.41 0 12.22 3.33 19.72 10.77 7.38 7.31 10.74 14.99 10.74 19.02 0 .61 0 1.73-2 3.8z" data-original="url(#z)"></path><path fill="url(#A)" d="M168.267 483.272c19.731 0 31.63-9.037 33.153-12.738v-62.13a20 20 0 0 1 6.446-14.707l13.554-12.491V315.37h-.005a20.001 20.001 0 0 1-19.996-20V31.623C201.42 28.25 189.802 20 168.267 20c-20.73 0-31.134 7.451-31.134 11.623v439.198c.896 3.505 11.611 12.451 31.134 12.451z" data-original="url(#A)"></path><path fill="url(#B)" d="M168.267 20c-20.73 0-31.134 7.451-31.134 11.623V192h64.288V31.623C201.42 28.25 189.802 20 168.267 20z" data-original="url(#B)"></path><path fill="url(#C)" d="M117.132 470.976c0 16.148 21.53 32.296 51.134 32.296s53.153-16.148 53.153-32.296v-62.573l34.314-31.623 81.411 120.435C343.201 505.963 351.948 510 362.04 510c24.894 0 59.881-27.586 59.881-51.807 0-5.383-2.019-10.765-5.383-16.148l-92.177-129.182H117.132z" data-original="url(#C)"></path><path fill="url(#D)" d="M117.132 366.667 221.42 268.5V121.028H117.132z" data-original="url(#D)"></path><path fill="url(#E)" d="M403.757 228.76c0 6.73-2.69 12.78-8.08 18.17L221.417 408.4v62.58c0 16.14-23.55 32.29-53.15 32.29s-51.13-16.15-51.13-32.29v-89.13c.68-1.94 1.42-3.86 2.24-5.75 4.77-11.02 11.78-21.16 20.81-29.9.21-.22.42-.42.64-.63l39.25-37.42 37.04-35.31c1.48-1.41 2.91-2.86 4.3-4.34v26.87l111.69-108.33c5.38-5.38 12.79-8.07 20.19-8.07 22.87 0 50.46 27.59 50.46 49.79z" data-original="url(#E)"></path><path fill="url(#F)" d="M265.609 175.731c-12.441 7.183-20.575 18.962-23.494 31.955a5.823 5.823 0 0 0 3.945 6.833c12.711 3.968 26.979 2.814 39.42-4.369s20.575-18.962 23.494-31.955a5.823 5.823 0 0 0-3.945-6.833c-12.711-3.968-26.979-2.814-39.42 4.369z" data-original="url(#F)"></path><path fill="url(#G)" d="M246.06 214.518c12.711 3.968 26.979 2.814 39.42-4.369s20.575-18.962 23.494-31.955a5.809 5.809 0 0 0-.638-4.186l-65.582 37.864a5.806 5.806 0 0 0 3.306 2.646z" data-original="url(#G)"></path><path fill="url(#H)" d="M152.525 280.41c7.183 12.441 18.962 20.575 31.955 23.494a5.823 5.823 0 0 0 6.833-3.945c3.968-12.711 2.814-26.979-4.369-39.42s-18.962-20.575-31.955-23.494a5.823 5.823 0 0 0-6.833 3.945c-3.968 12.711-2.814 26.979 4.369 39.42z" data-original="url(#H)"></path><path fill="url(#I)" d="M191.312 299.959c3.968-12.711 2.814-26.979-4.369-39.42s-18.962-20.575-31.955-23.494a5.809 5.809 0 0 0-4.186.638l37.864 65.582a5.806 5.806 0 0 0 2.646-3.306z" data-original="url(#I)"></path><path fill="url(#J)" d="M255.307 200.45c0 29.15-11.89 56.53-33.48 77.1l-37.04 35.31-39.25 37.42c-.22.21-.43.41-.64.63-9.03 8.74-16.04 18.88-20.81 29.9a89.108 89.108 0 0 0-6.95 27c-.29 2.88-.43 5.79-.43 8.71 0 2.93.14 5.84.43 8.71v45.75c0 .29.01.57.03.86l-1.88-3.65c-8.87-15.69-13.58-33.33-13.58-51.67 0-19.57 5.36-38.36 15.43-54.81 2.11-3.46 4.43-6.81 6.95-10.04.2-.26.4-.51.61-.76 3.18-4.03 6.68-7.86 10.49-11.49l27.86-26.56 48.43-46.16c18.59-17.72 28.83-41.25 28.83-66.25 0-25.01-10.24-48.53-28.83-66.25l-14.94-14.25 10.35-10.85 14.94 14.24c21.59 20.58 33.48 47.96 33.48 77.11z" data-original="url(#J)"></path><path fill="url(#K)" d="m221.829 123.337-14.94-14.24-10.35 10.85 14.94 14.25c18.59 17.72 28.83 41.24 28.83 66.25a89.64 89.64 0 0 1-10.844 42.82h16.728c5.974-13.353 9.117-27.851 9.117-42.82-.001-29.15-11.891-56.53-33.481-77.11z" data-original="url(#K)"></path><path fill="url(#L)" d="M178.789 58.728c31.589 18.238 52.239 48.145 59.65 81.132 1.687 7.508-2.67 15.055-10.016 17.348-32.274 10.075-68.499 7.145-100.088-11.092-31.589-18.238-52.239-48.145-59.65-81.132-1.687-7.508 2.67-15.055 10.016-17.348 32.274-10.075 68.499-7.146 100.088 11.092z" data-original="url(#L)"></path><path fill="url(#L)" d="M178.789 58.728c31.589 18.238 52.239 48.145 59.65 81.132 1.687 7.508-2.67 15.055-10.016 17.348-32.274 10.075-68.499 7.145-100.088-11.092-31.589-18.238-52.239-48.145-59.65-81.132-1.687-7.508 2.67-15.055 10.016-17.348 32.274-10.075 68.499-7.146 100.088 11.092z" data-original="url(#L)"></path><path fill="url(#M)" d="M128.335 146.118c6.2 3.58 12.573 6.57 19.07 8.983l6.326-3.021c30.087-14.359 59.972-14.937 83.09-1.589-23.119-13.348-37.561-39.517-40.169-72.753l-.547-6.989a125.567 125.567 0 0 0-17.315-12.023C147.2 40.488 110.978 37.558 78.701 47.634c-7.348 2.294-11.705 9.84-10.018 17.351 7.413 32.989 28.062 62.894 59.652 81.133z" data-original="url(#M)"></path><path fill="url(#N)" d="M194.765 126.21c-23.119-13.348-53.003-12.77-83.09 1.589l-5.105 2.437c-19.392-17.632-32.342-40.579-37.886-65.252-1.688-7.511 2.669-15.057 10.018-17.351 24.14-7.536 50.487-7.794 75.453.184l.442 5.639c2.607 33.237 17.049 59.407 40.168 72.754z" data-original="url(#N)"></path><path fill="url(#O)" d="M145.9 97.998c-19.033-10.989-42.652-12.53-67.194-4.723a126.048 126.048 0 0 1-10.023-28.291c-1.688-7.511 2.669-15.057 10.018-17.351a126.014 126.014 0 0 1 29.512-5.465c5.51 25.158 18.655 44.842 37.687 55.83z" data-original="url(#O)"></path><path fill="url(#P)" d="M228.423 157.208c-32.274 10.075-68.499 7.145-100.088-11.092-31.589-18.238-52.238-48.145-59.65-81.132a14.741 14.741 0 0 1 1.621-10.629l166.512 96.136a14.742 14.742 0 0 1-8.395 6.717z" data-original="url(#P)"></path><path fill="url(#Q)" d="M255.73 121.917a4 4 0 0 1 0-5.657l1.629-1.629a19.834 19.834 0 0 1 14.116-5.847h2.215a4.004 4.004 0 0 1 4 4.001 4.002 4.002 0 0 1-4.001 4h-2.214a11.89 11.89 0 0 0-8.459 3.504l-1.629 1.629a4.001 4.001 0 0 1-5.657-.001z" data-original="url(#Q)"></path><path fill="url(#R)" d="M250.213 116.4a4 4 0 0 1 0-5.657l1.629-1.629a11.887 11.887 0 0 0 3.504-8.46l-.001-2.213a4.002 4.002 0 0 1 8.001-.001v2.214a19.832 19.832 0 0 1-5.848 14.117l-1.629 1.629a4 4 0 0 1-5.656 0z" data-original="url(#R)"></path><path fill="url(#S)" d="m249.553 132.097-9.52-9.52c-3.107-3.107-2.43-8.314 1.368-10.523l2.241-1.303a10.96 10.96 0 0 1 13.259 1.724l2.755 2.755a10.96 10.96 0 0 1 1.724 13.259l-1.303 2.241c-2.209 3.797-7.417 4.474-10.524 1.367z" data-original="url(#S)"></path><circle cx="231.921" cy="140.209" r="21.073" fill="url(#T)" data-original="url(#T)"></circle><path fill="url(#U)" d="M248.34 123.531c-8.744-8.604-22.806-8.562-31.497.128-7.863 7.863-8.646 20.123-2.351 28.863 1.068 1.482 3.219 1.638 4.511.346z" data-original="url(#U)"></path><path fill="url(#V)" d="M245.23 126.641a7.454 7.454 0 0 0-10.537 10.537z" data-original="url(#V)"></path><path fill="url(#W)" d="M217.535 138.413a7.45 7.45 0 0 0-7.035-1.973 22.383 22.383 0 0 0 3.009 14.593 7.456 7.456 0 0 0 4.026-12.62z" data-original="url(#W)"></path><path fill="url(#X)" d="M214.937 125.825a5.789 5.789 0 0 0 9.183-7.028 22.3 22.3 0 0 0-7.278 4.862 22.748 22.748 0 0 0-1.905 2.166z" data-original="url(#X)"></path><path fill="url(#Y)" d="M248.34 123.531c8.604 8.744 8.562 22.806-.128 31.497-7.863 7.863-20.123 8.646-28.863 2.351-1.482-1.068-1.638-3.219-.346-4.511z" data-original="url(#Y)"></path><path fill="url(#Z)" d="M245.23 126.641a7.454 7.454 0 0 1-10.537 10.537z" data-original="url(#Z)"></path><path fill="url(#aa)" d="M233.457 154.336a7.45 7.45 0 0 1 1.973 7.035 22.383 22.383 0 0 1-14.593-3.009 7.454 7.454 0 0 1 12.62-4.026z" data-original="url(#aa)"></path><path fill="url(#ab)" d="M246.045 156.934a5.789 5.789 0 0 1 7.028-9.183 22.3 22.3 0 0 1-4.862 7.278 22.748 22.748 0 0 1-2.166 1.905z" data-original="url(#ab)"></path></g></svg>